<mxfile host="app.diagrams.net" modified="2021-02-24T04:33:07.495Z" agent="5.0 (Windows NT 10.0; Win64; x64) AppleWebKit/537.36 (KHTML, like Gecko) Chrome/88.0.4324.182 Safari/537.36" etag="0bqFPv8ulAZB5NWRcQIy" version="13.10.0" type="github">
  <diagram id="du7YrJJP8vEeNvlwVF5G" name="PMS">
    <mxGraphModel dx="2306" dy="741" grid="1" gridSize="10" guides="1" tooltips="1" connect="1" arrows="1" fold="1" page="1" pageScale="1" pageWidth="850" pageHeight="1100" math="0" shadow="0">
      <root>
        <mxCell id="0" />
        <mxCell id="1" parent="0" />
        <mxCell id="OeOfUr9kLQa3Q1ImxuzW-14" value="" style="edgeStyle=orthogonalEdgeStyle;rounded=0;orthogonalLoop=1;jettySize=auto;html=1;entryX=0;entryY=0.75;entryDx=0;entryDy=0;" parent="1" source="OeOfUr9kLQa3Q1ImxuzW-1" target="OeOfUr9kLQa3Q1ImxuzW-6" edge="1">
          <mxGeometry relative="1" as="geometry" />
        </mxCell>
        <mxCell id="hUDeKIqjZp0SxyYveqXA-41" style="edgeStyle=orthogonalEdgeStyle;rounded=0;orthogonalLoop=1;jettySize=auto;html=1;" edge="1" parent="1" source="OeOfUr9kLQa3Q1ImxuzW-1" target="OeOfUr9kLQa3Q1ImxuzW-7">
          <mxGeometry relative="1" as="geometry" />
        </mxCell>
        <mxCell id="OeOfUr9kLQa3Q1ImxuzW-1" value="TABLE: BUILD_VIEW" style="rounded=0;whiteSpace=wrap;html=1;" parent="1" vertex="1">
          <mxGeometry x="-280" y="10" width="160" height="50" as="geometry" />
        </mxCell>
        <mxCell id="OeOfUr9kLQa3Q1ImxuzW-27" style="edgeStyle=orthogonalEdgeStyle;rounded=0;orthogonalLoop=1;jettySize=auto;html=1;entryX=0.5;entryY=0;entryDx=0;entryDy=0;" parent="1" source="OeOfUr9kLQa3Q1ImxuzW-2" target="OeOfUr9kLQa3Q1ImxuzW-26" edge="1">
          <mxGeometry relative="1" as="geometry" />
        </mxCell>
        <mxCell id="OeOfUr9kLQa3Q1ImxuzW-29" style="edgeStyle=orthogonalEdgeStyle;rounded=0;orthogonalLoop=1;jettySize=auto;html=1;" parent="1" source="OeOfUr9kLQa3Q1ImxuzW-2" target="OeOfUr9kLQa3Q1ImxuzW-28" edge="1">
          <mxGeometry relative="1" as="geometry" />
        </mxCell>
        <mxCell id="OeOfUr9kLQa3Q1ImxuzW-2" value="TABLE: KPI_FORMULA" style="rounded=0;whiteSpace=wrap;html=1;" parent="1" vertex="1">
          <mxGeometry x="580" y="10" width="160" height="60" as="geometry" />
        </mxCell>
        <mxCell id="OeOfUr9kLQa3Q1ImxuzW-61" style="edgeStyle=orthogonalEdgeStyle;rounded=0;orthogonalLoop=1;jettySize=auto;html=1;entryX=0.5;entryY=0;entryDx=0;entryDy=0;" parent="1" source="OeOfUr9kLQa3Q1ImxuzW-3" target="OeOfUr9kLQa3Q1ImxuzW-60" edge="1">
          <mxGeometry relative="1" as="geometry" />
        </mxCell>
        <mxCell id="OeOfUr9kLQa3Q1ImxuzW-3" value="TABLE: KPI_COUNTER" style="rounded=0;whiteSpace=wrap;html=1;" parent="1" vertex="1">
          <mxGeometry x="247.5" y="610" width="160" height="60" as="geometry" />
        </mxCell>
        <mxCell id="OeOfUr9kLQa3Q1ImxuzW-65" style="edgeStyle=orthogonalEdgeStyle;rounded=0;orthogonalLoop=1;jettySize=auto;html=1;entryX=0.5;entryY=0;entryDx=0;entryDy=0;" parent="1" source="OeOfUr9kLQa3Q1ImxuzW-4" target="OeOfUr9kLQa3Q1ImxuzW-64" edge="1">
          <mxGeometry relative="1" as="geometry" />
        </mxCell>
        <mxCell id="OeOfUr9kLQa3Q1ImxuzW-67" style="edgeStyle=orthogonalEdgeStyle;rounded=0;orthogonalLoop=1;jettySize=auto;html=1;" parent="1" source="OeOfUr9kLQa3Q1ImxuzW-4" target="OeOfUr9kLQa3Q1ImxuzW-66" edge="1">
          <mxGeometry relative="1" as="geometry" />
        </mxCell>
        <mxCell id="OeOfUr9kLQa3Q1ImxuzW-4" value="TABLE: RAW_COUNTER_HEADER" style="rounded=0;whiteSpace=wrap;html=1;" parent="1" vertex="1">
          <mxGeometry x="247.5" y="755" width="160" height="60" as="geometry" />
        </mxCell>
        <mxCell id="OeOfUr9kLQa3Q1ImxuzW-16" style="edgeStyle=orthogonalEdgeStyle;rounded=0;orthogonalLoop=1;jettySize=auto;html=1;entryX=0;entryY=0.5;entryDx=0;entryDy=0;" parent="1" source="OeOfUr9kLQa3Q1ImxuzW-6" target="OeOfUr9kLQa3Q1ImxuzW-9" edge="1">
          <mxGeometry relative="1" as="geometry" />
        </mxCell>
        <mxCell id="OeOfUr9kLQa3Q1ImxuzW-18" style="edgeStyle=orthogonalEdgeStyle;rounded=0;orthogonalLoop=1;jettySize=auto;html=1;entryX=0;entryY=0.5;entryDx=0;entryDy=0;" parent="1" source="OeOfUr9kLQa3Q1ImxuzW-6" target="OeOfUr9kLQa3Q1ImxuzW-17" edge="1">
          <mxGeometry relative="1" as="geometry" />
        </mxCell>
        <mxCell id="OeOfUr9kLQa3Q1ImxuzW-24" style="edgeStyle=orthogonalEdgeStyle;rounded=0;orthogonalLoop=1;jettySize=auto;html=1;entryX=0;entryY=0.5;entryDx=0;entryDy=0;" parent="1" source="OeOfUr9kLQa3Q1ImxuzW-6" target="OeOfUr9kLQa3Q1ImxuzW-23" edge="1">
          <mxGeometry relative="1" as="geometry" />
        </mxCell>
        <mxCell id="OeOfUr9kLQa3Q1ImxuzW-34" style="edgeStyle=orthogonalEdgeStyle;rounded=0;orthogonalLoop=1;jettySize=auto;html=1;entryX=0;entryY=0.5;entryDx=0;entryDy=0;" parent="1" source="OeOfUr9kLQa3Q1ImxuzW-6" target="OeOfUr9kLQa3Q1ImxuzW-33" edge="1">
          <mxGeometry relative="1" as="geometry" />
        </mxCell>
        <mxCell id="hUDeKIqjZp0SxyYveqXA-14" style="edgeStyle=orthogonalEdgeStyle;rounded=0;orthogonalLoop=1;jettySize=auto;html=1;entryX=1;entryY=0.5;entryDx=0;entryDy=0;" edge="1" parent="1" source="OeOfUr9kLQa3Q1ImxuzW-6" target="hUDeKIqjZp0SxyYveqXA-12">
          <mxGeometry relative="1" as="geometry">
            <Array as="points">
              <mxPoint x="5" y="60" />
              <mxPoint x="110" y="60" />
              <mxPoint x="110" y="80" />
            </Array>
          </mxGeometry>
        </mxCell>
        <mxCell id="hUDeKIqjZp0SxyYveqXA-15" style="edgeStyle=orthogonalEdgeStyle;rounded=0;orthogonalLoop=1;jettySize=auto;html=1;entryX=1;entryY=0.75;entryDx=0;entryDy=0;" edge="1" parent="1" source="OeOfUr9kLQa3Q1ImxuzW-6" target="hUDeKIqjZp0SxyYveqXA-13">
          <mxGeometry relative="1" as="geometry">
            <Array as="points">
              <mxPoint x="5" y="60" />
              <mxPoint x="110" y="60" />
              <mxPoint x="110" y="125" />
            </Array>
          </mxGeometry>
        </mxCell>
        <mxCell id="hUDeKIqjZp0SxyYveqXA-16" style="edgeStyle=orthogonalEdgeStyle;rounded=0;orthogonalLoop=1;jettySize=auto;html=1;entryX=1;entryY=0.75;entryDx=0;entryDy=0;" edge="1" parent="1" source="OeOfUr9kLQa3Q1ImxuzW-6" target="hUDeKIqjZp0SxyYveqXA-9">
          <mxGeometry relative="1" as="geometry">
            <Array as="points">
              <mxPoint x="5" y="60" />
              <mxPoint x="110" y="60" />
              <mxPoint x="110" y="165" />
            </Array>
          </mxGeometry>
        </mxCell>
        <mxCell id="hUDeKIqjZp0SxyYveqXA-17" style="edgeStyle=orthogonalEdgeStyle;rounded=0;orthogonalLoop=1;jettySize=auto;html=1;entryX=1;entryY=0.5;entryDx=0;entryDy=0;" edge="1" parent="1" source="OeOfUr9kLQa3Q1ImxuzW-6" target="hUDeKIqjZp0SxyYveqXA-7">
          <mxGeometry relative="1" as="geometry">
            <Array as="points">
              <mxPoint x="5" y="60" />
              <mxPoint x="110" y="60" />
              <mxPoint x="110" y="200" />
            </Array>
          </mxGeometry>
        </mxCell>
        <mxCell id="OeOfUr9kLQa3Q1ImxuzW-6" value="CLICKHOUSE" style="rounded=1;whiteSpace=wrap;html=1;" parent="1" vertex="1">
          <mxGeometry x="-40" y="20" width="90" height="20" as="geometry" />
        </mxCell>
        <mxCell id="OeOfUr9kLQa3Q1ImxuzW-7" value="ORACLE" style="rounded=1;whiteSpace=wrap;html=1;fillColor=#f8cecc;strokeColor=#b85450;" parent="1" vertex="1">
          <mxGeometry x="-600" y="25" width="100" height="20" as="geometry" />
        </mxCell>
        <mxCell id="OeOfUr9kLQa3Q1ImxuzW-9" value="KPI_CONDITION" style="rounded=1;whiteSpace=wrap;html=1;" parent="1" vertex="1">
          <mxGeometry x="375" y="20" width="100" height="20" as="geometry" />
        </mxCell>
        <mxCell id="OeOfUr9kLQa3Q1ImxuzW-11" value="" style="endArrow=classic;html=1;entryX=0;entryY=0.5;entryDx=0;entryDy=0;exitX=0.5;exitY=1;exitDx=0;exitDy=0;" parent="1" source="OeOfUr9kLQa3Q1ImxuzW-9" target="OeOfUr9kLQa3Q1ImxuzW-2" edge="1">
          <mxGeometry width="50" height="50" relative="1" as="geometry">
            <mxPoint x="400" y="270" as="sourcePoint" />
            <mxPoint x="260" y="210" as="targetPoint" />
            <Array as="points" />
          </mxGeometry>
        </mxCell>
        <mxCell id="OeOfUr9kLQa3Q1ImxuzW-13" value="FILTER" style="text;html=1;strokeColor=none;fillColor=none;align=center;verticalAlign=middle;whiteSpace=wrap;rounded=0;" parent="1" vertex="1">
          <mxGeometry x="475" y="40" width="60" height="20" as="geometry" />
        </mxCell>
        <mxCell id="OeOfUr9kLQa3Q1ImxuzW-22" style="edgeStyle=orthogonalEdgeStyle;rounded=0;orthogonalLoop=1;jettySize=auto;html=1;entryX=0;entryY=0.5;entryDx=0;entryDy=0;" parent="1" source="OeOfUr9kLQa3Q1ImxuzW-17" target="OeOfUr9kLQa3Q1ImxuzW-2" edge="1">
          <mxGeometry relative="1" as="geometry" />
        </mxCell>
        <mxCell id="OeOfUr9kLQa3Q1ImxuzW-17" value="INCREASE_LEVEL:&lt;br&gt;&lt;font style=&quot;font-size: 9px&quot;&gt;RAW, TIME_LEVEL, NODE_LEVEL&lt;/font&gt;" style="rounded=1;whiteSpace=wrap;html=1;" parent="1" vertex="1">
          <mxGeometry x="370" y="70" width="110" height="50" as="geometry" />
        </mxCell>
        <mxCell id="OeOfUr9kLQa3Q1ImxuzW-25" style="edgeStyle=orthogonalEdgeStyle;rounded=0;orthogonalLoop=1;jettySize=auto;html=1;entryX=0;entryY=0.5;entryDx=0;entryDy=0;" parent="1" source="OeOfUr9kLQa3Q1ImxuzW-23" target="OeOfUr9kLQa3Q1ImxuzW-2" edge="1">
          <mxGeometry relative="1" as="geometry" />
        </mxCell>
        <mxCell id="OeOfUr9kLQa3Q1ImxuzW-23" value="TIME_LEVEL" style="rounded=1;whiteSpace=wrap;html=1;" parent="1" vertex="1">
          <mxGeometry x="370" y="150" width="110" height="20" as="geometry" />
        </mxCell>
        <mxCell id="OeOfUr9kLQa3Q1ImxuzW-31" style="edgeStyle=orthogonalEdgeStyle;rounded=0;orthogonalLoop=1;jettySize=auto;html=1;" parent="1" source="OeOfUr9kLQa3Q1ImxuzW-26" target="OeOfUr9kLQa3Q1ImxuzW-30" edge="1">
          <mxGeometry relative="1" as="geometry" />
        </mxCell>
        <mxCell id="OeOfUr9kLQa3Q1ImxuzW-58" style="edgeStyle=orthogonalEdgeStyle;rounded=0;orthogonalLoop=1;jettySize=auto;html=1;" parent="1" source="OeOfUr9kLQa3Q1ImxuzW-26" target="OeOfUr9kLQa3Q1ImxuzW-57" edge="1">
          <mxGeometry relative="1" as="geometry" />
        </mxCell>
        <mxCell id="OeOfUr9kLQa3Q1ImxuzW-26" value="INCREASE_LEVEL in (RAW,TIME_LEVEL)" style="rhombus;whiteSpace=wrap;html=1;" parent="1" vertex="1">
          <mxGeometry x="565" y="205" width="190" height="80" as="geometry" />
        </mxCell>
        <mxCell id="OeOfUr9kLQa3Q1ImxuzW-28" value="INCREASE_LEVEL = NODE_LEVEL" style="rhombus;whiteSpace=wrap;html=1;fillColor=#f8cecc;strokeColor=#b85450;" parent="1" vertex="1">
          <mxGeometry x="1640" y="205" width="190" height="80" as="geometry" />
        </mxCell>
        <mxCell id="OeOfUr9kLQa3Q1ImxuzW-39" style="edgeStyle=orthogonalEdgeStyle;rounded=0;orthogonalLoop=1;jettySize=auto;html=1;" parent="1" source="OeOfUr9kLQa3Q1ImxuzW-30" target="OeOfUr9kLQa3Q1ImxuzW-38" edge="1">
          <mxGeometry relative="1" as="geometry" />
        </mxCell>
        <mxCell id="OeOfUr9kLQa3Q1ImxuzW-30" value="CAL_{TIME_LEVEL}_TYPE" style="rounded=1;whiteSpace=wrap;html=1;" parent="1" vertex="1">
          <mxGeometry x="567.5" y="315" width="185" height="20" as="geometry" />
        </mxCell>
        <mxCell id="OeOfUr9kLQa3Q1ImxuzW-36" style="edgeStyle=orthogonalEdgeStyle;rounded=0;orthogonalLoop=1;jettySize=auto;html=1;entryX=0;entryY=0.5;entryDx=0;entryDy=0;" parent="1" source="OeOfUr9kLQa3Q1ImxuzW-33" target="OeOfUr9kLQa3Q1ImxuzW-2" edge="1">
          <mxGeometry relative="1" as="geometry" />
        </mxCell>
        <mxCell id="OeOfUr9kLQa3Q1ImxuzW-33" value="NODE_LEVEL" style="rounded=1;whiteSpace=wrap;html=1;" parent="1" vertex="1">
          <mxGeometry x="370" y="190" width="110" height="20" as="geometry" />
        </mxCell>
        <mxCell id="OeOfUr9kLQa3Q1ImxuzW-43" style="edgeStyle=orthogonalEdgeStyle;rounded=0;orthogonalLoop=1;jettySize=auto;html=1;" parent="1" source="OeOfUr9kLQa3Q1ImxuzW-38" target="OeOfUr9kLQa3Q1ImxuzW-41" edge="1">
          <mxGeometry relative="1" as="geometry" />
        </mxCell>
        <mxCell id="OeOfUr9kLQa3Q1ImxuzW-44" style="edgeStyle=orthogonalEdgeStyle;rounded=0;orthogonalLoop=1;jettySize=auto;html=1;entryX=0.5;entryY=0;entryDx=0;entryDy=0;" parent="1" source="OeOfUr9kLQa3Q1ImxuzW-38" target="OeOfUr9kLQa3Q1ImxuzW-42" edge="1">
          <mxGeometry relative="1" as="geometry" />
        </mxCell>
        <mxCell id="OeOfUr9kLQa3Q1ImxuzW-38" value="CAL_{TIME_LEVEL}_TYPE &lt;br&gt;[ {NODE_LEVEL}}" style="rounded=1;whiteSpace=wrap;html=1;" parent="1" vertex="1">
          <mxGeometry x="567.5" y="375" width="185" height="30" as="geometry" />
        </mxCell>
        <mxCell id="OeOfUr9kLQa3Q1ImxuzW-46" style="edgeStyle=orthogonalEdgeStyle;rounded=0;orthogonalLoop=1;jettySize=auto;html=1;" parent="1" source="OeOfUr9kLQa3Q1ImxuzW-41" target="OeOfUr9kLQa3Q1ImxuzW-45" edge="1">
          <mxGeometry relative="1" as="geometry" />
        </mxCell>
        <mxCell id="OeOfUr9kLQa3Q1ImxuzW-41" value="KEY=&#39;BY_COUNTER&#39;" style="rounded=1;whiteSpace=wrap;html=1;" parent="1" vertex="1">
          <mxGeometry x="252.5" y="450" width="150" height="20" as="geometry" />
        </mxCell>
        <mxCell id="OeOfUr9kLQa3Q1ImxuzW-48" style="edgeStyle=orthogonalEdgeStyle;rounded=0;orthogonalLoop=1;jettySize=auto;html=1;entryX=0.5;entryY=0;entryDx=0;entryDy=0;" parent="1" source="OeOfUr9kLQa3Q1ImxuzW-42" target="OeOfUr9kLQa3Q1ImxuzW-47" edge="1">
          <mxGeometry relative="1" as="geometry" />
        </mxCell>
        <mxCell id="OeOfUr9kLQa3Q1ImxuzW-50" style="edgeStyle=orthogonalEdgeStyle;rounded=0;orthogonalLoop=1;jettySize=auto;html=1;" parent="1" source="OeOfUr9kLQa3Q1ImxuzW-42" target="OeOfUr9kLQa3Q1ImxuzW-49" edge="1">
          <mxGeometry relative="1" as="geometry" />
        </mxCell>
        <mxCell id="OeOfUr9kLQa3Q1ImxuzW-52" style="edgeStyle=orthogonalEdgeStyle;rounded=0;orthogonalLoop=1;jettySize=auto;html=1;" parent="1" source="OeOfUr9kLQa3Q1ImxuzW-42" target="OeOfUr9kLQa3Q1ImxuzW-51" edge="1">
          <mxGeometry relative="1" as="geometry" />
        </mxCell>
        <mxCell id="OeOfUr9kLQa3Q1ImxuzW-54" style="edgeStyle=orthogonalEdgeStyle;rounded=0;orthogonalLoop=1;jettySize=auto;html=1;" parent="1" source="OeOfUr9kLQa3Q1ImxuzW-42" target="OeOfUr9kLQa3Q1ImxuzW-53" edge="1">
          <mxGeometry relative="1" as="geometry" />
        </mxCell>
        <mxCell id="OeOfUr9kLQa3Q1ImxuzW-42" value="KEY=&#39;BY_KPI&#39;" style="rounded=1;whiteSpace=wrap;html=1;" parent="1" vertex="1">
          <mxGeometry x="920" y="430" width="150" height="20" as="geometry" />
        </mxCell>
        <mxCell id="OeOfUr9kLQa3Q1ImxuzW-56" style="edgeStyle=orthogonalEdgeStyle;rounded=0;orthogonalLoop=1;jettySize=auto;html=1;" parent="1" source="OeOfUr9kLQa3Q1ImxuzW-45" target="OeOfUr9kLQa3Q1ImxuzW-3" edge="1">
          <mxGeometry relative="1" as="geometry" />
        </mxCell>
        <mxCell id="OeOfUr9kLQa3Q1ImxuzW-45" value="VALUE=&#39;FORMULA&#39;" style="rhombus;whiteSpace=wrap;html=1;" parent="1" vertex="1">
          <mxGeometry x="250" y="520" width="155" height="50" as="geometry" />
        </mxCell>
        <mxCell id="OeOfUr9kLQa3Q1ImxuzW-78" style="edgeStyle=orthogonalEdgeStyle;rounded=0;orthogonalLoop=1;jettySize=auto;html=1;entryX=0.5;entryY=0;entryDx=0;entryDy=0;" parent="1" source="OeOfUr9kLQa3Q1ImxuzW-47" target="OeOfUr9kLQa3Q1ImxuzW-71" edge="1">
          <mxGeometry relative="1" as="geometry" />
        </mxCell>
        <mxCell id="OeOfUr9kLQa3Q1ImxuzW-79" style="edgeStyle=orthogonalEdgeStyle;rounded=0;orthogonalLoop=1;jettySize=auto;html=1;entryX=0.5;entryY=0;entryDx=0;entryDy=0;" parent="1" source="OeOfUr9kLQa3Q1ImxuzW-47" target="OeOfUr9kLQa3Q1ImxuzW-76" edge="1">
          <mxGeometry relative="1" as="geometry" />
        </mxCell>
        <mxCell id="OeOfUr9kLQa3Q1ImxuzW-47" value="VALUE=&#39;FORMULA&#39;" style="rhombus;whiteSpace=wrap;html=1;" parent="1" vertex="1">
          <mxGeometry x="1330" y="505" width="155" height="50" as="geometry" />
        </mxCell>
        <mxCell id="OeOfUr9kLQa3Q1ImxuzW-73" style="edgeStyle=orthogonalEdgeStyle;rounded=0;orthogonalLoop=1;jettySize=auto;html=1;entryX=0.5;entryY=0;entryDx=0;entryDy=0;" parent="1" source="OeOfUr9kLQa3Q1ImxuzW-49" target="OeOfUr9kLQa3Q1ImxuzW-72" edge="1">
          <mxGeometry relative="1" as="geometry" />
        </mxCell>
        <mxCell id="OeOfUr9kLQa3Q1ImxuzW-49" value="VALUE in (MAX,SUM,AVG)&#39;" style="rhombus;whiteSpace=wrap;html=1;" parent="1" vertex="1">
          <mxGeometry x="600" y="505" width="200" height="50" as="geometry" />
        </mxCell>
        <mxCell id="OeOfUr9kLQa3Q1ImxuzW-75" style="edgeStyle=orthogonalEdgeStyle;rounded=0;orthogonalLoop=1;jettySize=auto;html=1;entryX=0.5;entryY=0;entryDx=0;entryDy=0;" parent="1" source="OeOfUr9kLQa3Q1ImxuzW-51" target="OeOfUr9kLQa3Q1ImxuzW-74" edge="1">
          <mxGeometry relative="1" as="geometry" />
        </mxCell>
        <mxCell id="OeOfUr9kLQa3Q1ImxuzW-51" value="VALUE=&#39;argMax&#39;" style="rhombus;whiteSpace=wrap;html=1;" parent="1" vertex="1">
          <mxGeometry x="820" y="505" width="155" height="50" as="geometry" />
        </mxCell>
        <mxCell id="OeOfUr9kLQa3Q1ImxuzW-96" style="edgeStyle=orthogonalEdgeStyle;rounded=0;orthogonalLoop=1;jettySize=auto;html=1;entryX=0;entryY=0;entryDx=0;entryDy=0;" parent="1" source="OeOfUr9kLQa3Q1ImxuzW-53" target="OeOfUr9kLQa3Q1ImxuzW-85" edge="1">
          <mxGeometry relative="1" as="geometry" />
        </mxCell>
        <mxCell id="OeOfUr9kLQa3Q1ImxuzW-53" value="VALUE=&#39;SPECIAL&#39;" style="rhombus;whiteSpace=wrap;html=1;" parent="1" vertex="1">
          <mxGeometry x="1000" y="505" width="155" height="50" as="geometry" />
        </mxCell>
        <mxCell id="OeOfUr9kLQa3Q1ImxuzW-59" style="edgeStyle=orthogonalEdgeStyle;rounded=0;orthogonalLoop=1;jettySize=auto;html=1;entryX=0;entryY=0.5;entryDx=0;entryDy=0;" parent="1" source="OeOfUr9kLQa3Q1ImxuzW-57" target="OeOfUr9kLQa3Q1ImxuzW-3" edge="1">
          <mxGeometry relative="1" as="geometry">
            <Array as="points">
              <mxPoint x="220" y="340" />
              <mxPoint x="220" y="640" />
            </Array>
          </mxGeometry>
        </mxCell>
        <mxCell id="OeOfUr9kLQa3Q1ImxuzW-57" value="KPI_FORMULA_ID" style="rounded=1;whiteSpace=wrap;html=1;" parent="1" vertex="1">
          <mxGeometry x="240" y="330" width="185" height="20" as="geometry" />
        </mxCell>
        <mxCell id="OeOfUr9kLQa3Q1ImxuzW-62" style="edgeStyle=orthogonalEdgeStyle;rounded=0;orthogonalLoop=1;jettySize=auto;html=1;entryX=0.5;entryY=0;entryDx=0;entryDy=0;" parent="1" source="OeOfUr9kLQa3Q1ImxuzW-60" target="OeOfUr9kLQa3Q1ImxuzW-4" edge="1">
          <mxGeometry relative="1" as="geometry" />
        </mxCell>
        <mxCell id="OeOfUr9kLQa3Q1ImxuzW-60" value="RAW_COUNTER_NAME" style="rounded=1;whiteSpace=wrap;html=1;" parent="1" vertex="1">
          <mxGeometry x="235" y="705" width="185" height="20" as="geometry" />
        </mxCell>
        <mxCell id="OeOfUr9kLQa3Q1ImxuzW-69" style="edgeStyle=orthogonalEdgeStyle;rounded=0;orthogonalLoop=1;jettySize=auto;html=1;" parent="1" source="OeOfUr9kLQa3Q1ImxuzW-64" target="OeOfUr9kLQa3Q1ImxuzW-68" edge="1">
          <mxGeometry relative="1" as="geometry" />
        </mxCell>
        <mxCell id="OeOfUr9kLQa3Q1ImxuzW-64" value="CAL_{TIME_LEVEL}_TYPE" style="rounded=1;whiteSpace=wrap;html=1;" parent="1" vertex="1">
          <mxGeometry x="130" y="855" width="185" height="20" as="geometry" />
        </mxCell>
        <mxCell id="OeOfUr9kLQa3Q1ImxuzW-70" style="edgeStyle=orthogonalEdgeStyle;rounded=0;orthogonalLoop=1;jettySize=auto;html=1;" parent="1" source="OeOfUr9kLQa3Q1ImxuzW-66" target="OeOfUr9kLQa3Q1ImxuzW-68" edge="1">
          <mxGeometry relative="1" as="geometry" />
        </mxCell>
        <mxCell id="OeOfUr9kLQa3Q1ImxuzW-66" value="RAW_COUNTER_NAME" style="rounded=1;whiteSpace=wrap;html=1;" parent="1" vertex="1">
          <mxGeometry x="360" y="855" width="185" height="20" as="geometry" />
        </mxCell>
        <mxCell id="hUDeKIqjZp0SxyYveqXA-32" style="edgeStyle=orthogonalEdgeStyle;rounded=0;orthogonalLoop=1;jettySize=auto;html=1;entryX=0.5;entryY=0;entryDx=0;entryDy=0;" edge="1" parent="1" source="OeOfUr9kLQa3Q1ImxuzW-68" target="hUDeKIqjZp0SxyYveqXA-31">
          <mxGeometry relative="1" as="geometry" />
        </mxCell>
        <mxCell id="OeOfUr9kLQa3Q1ImxuzW-68" value="COUNTER_FUNCTIONS&lt;br&gt;&lt;i&gt;Ex: AVG(M16C000)&lt;/i&gt;" style="rounded=0;whiteSpace=wrap;html=1;" parent="1" vertex="1">
          <mxGeometry x="245" y="915" width="160" height="60" as="geometry" />
        </mxCell>
        <mxCell id="OeOfUr9kLQa3Q1ImxuzW-81" style="edgeStyle=orthogonalEdgeStyle;rounded=0;orthogonalLoop=1;jettySize=auto;html=1;" parent="1" source="OeOfUr9kLQa3Q1ImxuzW-71" target="OeOfUr9kLQa3Q1ImxuzW-80" edge="1">
          <mxGeometry relative="1" as="geometry" />
        </mxCell>
        <mxCell id="OeOfUr9kLQa3Q1ImxuzW-83" style="edgeStyle=orthogonalEdgeStyle;rounded=0;orthogonalLoop=1;jettySize=auto;html=1;" parent="1" source="OeOfUr9kLQa3Q1ImxuzW-71" target="OeOfUr9kLQa3Q1ImxuzW-82" edge="1">
          <mxGeometry relative="1" as="geometry" />
        </mxCell>
        <mxCell id="OeOfUr9kLQa3Q1ImxuzW-71" value="LIST_KPI_FORMULA_ID_BY_KPI" style="rounded=1;whiteSpace=wrap;html=1;" parent="1" vertex="1">
          <mxGeometry x="1190" y="600" width="195" height="20" as="geometry" />
        </mxCell>
        <mxCell id="OeOfUr9kLQa3Q1ImxuzW-94" style="edgeStyle=orthogonalEdgeStyle;rounded=0;orthogonalLoop=1;jettySize=auto;html=1;entryX=0;entryY=0.5;entryDx=0;entryDy=0;" parent="1" source="OeOfUr9kLQa3Q1ImxuzW-72" target="OeOfUr9kLQa3Q1ImxuzW-90" edge="1">
          <mxGeometry relative="1" as="geometry">
            <Array as="points">
              <mxPoint x="700" y="945" />
            </Array>
          </mxGeometry>
        </mxCell>
        <mxCell id="OeOfUr9kLQa3Q1ImxuzW-72" value="MAX({KPI_FORMULA_ID}) as KPI_{KPI_FORMULA_ID}" style="rounded=1;whiteSpace=wrap;html=1;" parent="1" vertex="1">
          <mxGeometry x="607.5" y="590" width="185" height="30" as="geometry" />
        </mxCell>
        <mxCell id="OeOfUr9kLQa3Q1ImxuzW-92" style="edgeStyle=orthogonalEdgeStyle;rounded=0;orthogonalLoop=1;jettySize=auto;html=1;" parent="1" source="OeOfUr9kLQa3Q1ImxuzW-74" target="OeOfUr9kLQa3Q1ImxuzW-90" edge="1">
          <mxGeometry relative="1" as="geometry" />
        </mxCell>
        <mxCell id="OeOfUr9kLQa3Q1ImxuzW-74" value="argMax(KPI_391,A.KPI_378) as KPI_391" style="rounded=1;whiteSpace=wrap;html=1;" parent="1" vertex="1">
          <mxGeometry x="805" y="590" width="185" height="30" as="geometry" />
        </mxCell>
        <mxCell id="OeOfUr9kLQa3Q1ImxuzW-84" style="edgeStyle=orthogonalEdgeStyle;rounded=0;orthogonalLoop=1;jettySize=auto;html=1;entryX=0.5;entryY=0;entryDx=0;entryDy=0;" parent="1" source="OeOfUr9kLQa3Q1ImxuzW-76" target="OeOfUr9kLQa3Q1ImxuzW-80" edge="1">
          <mxGeometry relative="1" as="geometry">
            <Array as="points">
              <mxPoint x="1527" y="640" />
              <mxPoint x="1177" y="640" />
            </Array>
          </mxGeometry>
        </mxCell>
        <mxCell id="OeOfUr9kLQa3Q1ImxuzW-76" value="KPI_FORMULA_BY_KPI" style="rounded=1;whiteSpace=wrap;html=1;" parent="1" vertex="1">
          <mxGeometry x="1435" y="600" width="185" height="20" as="geometry" />
        </mxCell>
        <mxCell id="OeOfUr9kLQa3Q1ImxuzW-86" style="edgeStyle=orthogonalEdgeStyle;rounded=0;orthogonalLoop=1;jettySize=auto;html=1;entryX=0.5;entryY=0;entryDx=0;entryDy=0;" parent="1" source="OeOfUr9kLQa3Q1ImxuzW-80" target="OeOfUr9kLQa3Q1ImxuzW-85" edge="1">
          <mxGeometry relative="1" as="geometry" />
        </mxCell>
        <mxCell id="OeOfUr9kLQa3Q1ImxuzW-80" value="LENGTH = 1" style="rhombus;whiteSpace=wrap;html=1;" parent="1" vertex="1">
          <mxGeometry x="1100" y="660" width="155" height="50" as="geometry" />
        </mxCell>
        <mxCell id="OeOfUr9kLQa3Q1ImxuzW-88" style="edgeStyle=orthogonalEdgeStyle;rounded=0;orthogonalLoop=1;jettySize=auto;html=1;" parent="1" source="OeOfUr9kLQa3Q1ImxuzW-82" target="OeOfUr9kLQa3Q1ImxuzW-87" edge="1">
          <mxGeometry relative="1" as="geometry" />
        </mxCell>
        <mxCell id="OeOfUr9kLQa3Q1ImxuzW-82" value="LENGTH &amp;gt; 1" style="rhombus;whiteSpace=wrap;html=1;" parent="1" vertex="1">
          <mxGeometry x="1370" y="660" width="155" height="45" as="geometry" />
        </mxCell>
        <mxCell id="OeOfUr9kLQa3Q1ImxuzW-91" style="edgeStyle=orthogonalEdgeStyle;rounded=0;orthogonalLoop=1;jettySize=auto;html=1;" parent="1" source="OeOfUr9kLQa3Q1ImxuzW-85" target="OeOfUr9kLQa3Q1ImxuzW-90" edge="1">
          <mxGeometry relative="1" as="geometry" />
        </mxCell>
        <mxCell id="OeOfUr9kLQa3Q1ImxuzW-85" value="{LIST_KPI_FORMULA_ID_BY_KPI} as KPI_{KPI_FORMULA_ID}" style="rounded=1;whiteSpace=wrap;html=1;" parent="1" vertex="1">
          <mxGeometry x="1080" y="755" width="195" height="35" as="geometry" />
        </mxCell>
        <mxCell id="OeOfUr9kLQa3Q1ImxuzW-89" style="edgeStyle=orthogonalEdgeStyle;rounded=0;orthogonalLoop=1;jettySize=auto;html=1;entryX=1;entryY=0.5;entryDx=0;entryDy=0;" parent="1" source="OeOfUr9kLQa3Q1ImxuzW-87" target="OeOfUr9kLQa3Q1ImxuzW-85" edge="1">
          <mxGeometry relative="1" as="geometry">
            <mxPoint x="1280" y="772.5" as="targetPoint" />
          </mxGeometry>
        </mxCell>
        <mxCell id="OeOfUr9kLQa3Q1ImxuzW-87" value="Handle IfNull() Error:&lt;br&gt;Ex: 1 + Null = Null (Sai)" style="rounded=1;whiteSpace=wrap;html=1;" parent="1" vertex="1">
          <mxGeometry x="1350" y="755" width="195" height="35" as="geometry" />
        </mxCell>
        <mxCell id="hUDeKIqjZp0SxyYveqXA-33" style="edgeStyle=orthogonalEdgeStyle;rounded=0;orthogonalLoop=1;jettySize=auto;html=1;entryX=1;entryY=0.5;entryDx=0;entryDy=0;" edge="1" parent="1" source="OeOfUr9kLQa3Q1ImxuzW-90" target="hUDeKIqjZp0SxyYveqXA-31">
          <mxGeometry relative="1" as="geometry">
            <Array as="points">
              <mxPoint x="897" y="1070" />
            </Array>
          </mxGeometry>
        </mxCell>
        <mxCell id="OeOfUr9kLQa3Q1ImxuzW-90" value="KPI_FUNCTIONS&lt;br&gt;&lt;i&gt;Ex: KPI_1 + KPI_2 (= KPI_3)&lt;/i&gt;" style="rounded=0;whiteSpace=wrap;html=1;" parent="1" vertex="1">
          <mxGeometry x="817.5" y="915" width="160" height="60" as="geometry" />
        </mxCell>
        <mxCell id="hUDeKIqjZp0SxyYveqXA-24" style="edgeStyle=orthogonalEdgeStyle;rounded=0;orthogonalLoop=1;jettySize=auto;html=1;entryX=1;entryY=0.5;entryDx=0;entryDy=0;" edge="1" parent="1" source="hUDeKIqjZp0SxyYveqXA-7" target="hUDeKIqjZp0SxyYveqXA-20">
          <mxGeometry relative="1" as="geometry" />
        </mxCell>
        <mxCell id="hUDeKIqjZp0SxyYveqXA-7" value="CATEGORICAL_COLUMN" style="rounded=1;whiteSpace=wrap;html=1;" vertex="1" parent="1">
          <mxGeometry x="-60" y="190" width="150" height="20" as="geometry" />
        </mxCell>
        <mxCell id="hUDeKIqjZp0SxyYveqXA-23" style="edgeStyle=orthogonalEdgeStyle;rounded=0;orthogonalLoop=1;jettySize=auto;html=1;" edge="1" parent="1" source="hUDeKIqjZp0SxyYveqXA-9" target="hUDeKIqjZp0SxyYveqXA-20">
          <mxGeometry relative="1" as="geometry" />
        </mxCell>
        <mxCell id="hUDeKIqjZp0SxyYveqXA-9" value="&lt;span style=&quot;color: rgba(0 , 0 , 0 , 0) ; font-family: monospace ; font-size: 0px&quot;&gt;%3CmxGraphModel%3E%3Croot%3E%3CmxCell%20id%3D%220%22%2F%3E%3CmxCell%20id%3D%221%22%20parent%3D%220%22%2F%3E%3CmxCell%20id%3D%222%22%20value%3D%22CATEGORICAL_COLUMN%22%20style%3D%22rounded%3D1%3BwhiteSpace%3Dwrap%3Bhtml%3D1%3B%22%20vertex%3D%221%22%20parent%3D%221%22%3E%3CmxGeometry%20x%3D%22-60%22%20y%3D%22190%22%20width%3D%22150%22%20height%3D%2220%22%20as%3D%22geometry%22%2F%3E%3C%2FmxCell%3E%3C%2Froot%3E%3C%2FmxGraphModel%3E&lt;/span&gt;WHERE_COND" style="rounded=1;whiteSpace=wrap;html=1;" vertex="1" parent="1">
          <mxGeometry x="-60" y="150" width="150" height="20" as="geometry" />
        </mxCell>
        <mxCell id="hUDeKIqjZp0SxyYveqXA-21" style="edgeStyle=orthogonalEdgeStyle;rounded=0;orthogonalLoop=1;jettySize=auto;html=1;entryX=1;entryY=0.5;entryDx=0;entryDy=0;" edge="1" parent="1" source="hUDeKIqjZp0SxyYveqXA-12" target="hUDeKIqjZp0SxyYveqXA-20">
          <mxGeometry relative="1" as="geometry" />
        </mxCell>
        <mxCell id="hUDeKIqjZp0SxyYveqXA-12" value="&lt;font face=&quot;monospace&quot;&gt;VIEW_NAME&lt;/font&gt;" style="rounded=1;whiteSpace=wrap;html=1;" vertex="1" parent="1">
          <mxGeometry x="-60" y="70" width="150" height="20" as="geometry" />
        </mxCell>
        <mxCell id="hUDeKIqjZp0SxyYveqXA-22" style="edgeStyle=orthogonalEdgeStyle;rounded=0;orthogonalLoop=1;jettySize=auto;html=1;entryX=1;entryY=0.5;entryDx=0;entryDy=0;" edge="1" parent="1" source="hUDeKIqjZp0SxyYveqXA-13" target="hUDeKIqjZp0SxyYveqXA-20">
          <mxGeometry relative="1" as="geometry" />
        </mxCell>
        <mxCell id="hUDeKIqjZp0SxyYveqXA-13" value="&lt;font face=&quot;monospace&quot;&gt;SOURCE_TABLE&lt;/font&gt;" style="rounded=1;whiteSpace=wrap;html=1;" vertex="1" parent="1">
          <mxGeometry x="-60" y="110" width="150" height="20" as="geometry" />
        </mxCell>
        <mxCell id="hUDeKIqjZp0SxyYveqXA-30" style="edgeStyle=orthogonalEdgeStyle;rounded=0;orthogonalLoop=1;jettySize=auto;html=1;" edge="1" parent="1" source="hUDeKIqjZp0SxyYveqXA-18" target="hUDeKIqjZp0SxyYveqXA-28">
          <mxGeometry relative="1" as="geometry" />
        </mxCell>
        <mxCell id="hUDeKIqjZp0SxyYveqXA-18" value="CREATE_VIEW" style="rhombus;whiteSpace=wrap;html=1;" vertex="1" parent="1">
          <mxGeometry x="-270" y="935" width="130" height="40" as="geometry" />
        </mxCell>
        <mxCell id="hUDeKIqjZp0SxyYveqXA-26" style="edgeStyle=orthogonalEdgeStyle;rounded=0;orthogonalLoop=1;jettySize=auto;html=1;" edge="1" parent="1" source="hUDeKIqjZp0SxyYveqXA-20" target="hUDeKIqjZp0SxyYveqXA-25">
          <mxGeometry relative="1" as="geometry" />
        </mxCell>
        <mxCell id="hUDeKIqjZp0SxyYveqXA-20" value="QUERY_VIEW" style="rhombus;whiteSpace=wrap;html=1;" vertex="1" parent="1">
          <mxGeometry x="-270" y="120" width="130" height="40" as="geometry" />
        </mxCell>
        <mxCell id="hUDeKIqjZp0SxyYveqXA-35" style="edgeStyle=orthogonalEdgeStyle;rounded=0;orthogonalLoop=1;jettySize=auto;html=1;entryX=0.5;entryY=0;entryDx=0;entryDy=0;" edge="1" parent="1" source="hUDeKIqjZp0SxyYveqXA-25" target="hUDeKIqjZp0SxyYveqXA-36">
          <mxGeometry relative="1" as="geometry">
            <mxPoint x="-215" y="1209.9999999999998" as="targetPoint" />
          </mxGeometry>
        </mxCell>
        <mxCell id="hUDeKIqjZp0SxyYveqXA-25" value="select {CATEGORICAL_COLUMN},&lt;br&gt;from {SOURCE_TABLE}&amp;nbsp;&lt;br&gt;Where {WHERE_COND}" style="rounded=1;whiteSpace=wrap;html=1;" vertex="1" parent="1">
          <mxGeometry x="-305" y="620" width="200" height="60" as="geometry" />
        </mxCell>
        <mxCell id="hUDeKIqjZp0SxyYveqXA-28" value="create or replace {VIEW_NAME} AS&lt;br&gt;select {CATEGORICAL_COLUMN},&lt;br&gt;from {SOURCE_TABLE}&amp;nbsp;&lt;br&gt;Where {WHERE_COND}" style="rounded=1;whiteSpace=wrap;html=1;" vertex="1" parent="1">
          <mxGeometry x="-307.5" y="1040" width="205" height="60" as="geometry" />
        </mxCell>
        <mxCell id="hUDeKIqjZp0SxyYveqXA-34" style="edgeStyle=orthogonalEdgeStyle;rounded=0;orthogonalLoop=1;jettySize=auto;html=1;" edge="1" parent="1" source="hUDeKIqjZp0SxyYveqXA-31" target="hUDeKIqjZp0SxyYveqXA-25">
          <mxGeometry relative="1" as="geometry">
            <Array as="points">
              <mxPoint x="20" y="1070" />
              <mxPoint x="20" y="650" />
            </Array>
          </mxGeometry>
        </mxCell>
        <mxCell id="hUDeKIqjZp0SxyYveqXA-31" value="MAIN_VIEW&lt;br&gt;&lt;i&gt;Ex: AVG(M16C000), &lt;br&gt;(KPI_1 + KPI_2 )AS KPI_3&lt;/i&gt;" style="rounded=0;whiteSpace=wrap;html=1;" vertex="1" parent="1">
          <mxGeometry x="510" y="1040" width="160" height="60" as="geometry" />
        </mxCell>
        <mxCell id="hUDeKIqjZp0SxyYveqXA-38" style="edgeStyle=orthogonalEdgeStyle;rounded=0;orthogonalLoop=1;jettySize=auto;html=1;" edge="1" parent="1" source="hUDeKIqjZp0SxyYveqXA-36" target="hUDeKIqjZp0SxyYveqXA-18">
          <mxGeometry relative="1" as="geometry">
            <mxPoint x="-190" y="970" as="targetPoint" />
          </mxGeometry>
        </mxCell>
        <mxCell id="hUDeKIqjZp0SxyYveqXA-36" value="select {CATEGORICAL_COLUMN}, {MAIN_VIEW}&lt;br&gt;from {SOURCE_TABLE}&amp;nbsp;&lt;br&gt;Where {WHERE_COND}" style="rounded=1;whiteSpace=wrap;html=1;" vertex="1" parent="1">
          <mxGeometry x="-307.5" y="780" width="205" height="50" as="geometry" />
        </mxCell>
      </root>
    </mxGraphModel>
  </diagram>
</mxfile>
